# xmcd
#
# Track frame offsets: 
#        150
#        11977
#        20907
#        30303
#        40224
#        47711
#        53284
#        64298
#        75835
#        88901
#        100745
#        113760
#        124760
#        136979
#        150019
#        157137
#        167902
#        180641
#        192423
#        201359
#
# Disc length: 2806 seconds
#
# Revision: 1
# Processed by: cddbd v1.5PL3 Copyright (c) Steve Scherf et al.
# Submitted via: ExactAudioCopy v0.90b4
#
DISCID=040af414
DTITLE=George Jones - Jones by George! - Disc 1
DYEAR=1900
DGENRE=Country
TTITLE0=White Lightning
TTITLE1=Love Bug
TTITLE2=The Race Is On
TTITLE3=Back In My Baby's Arms Again
TTITLE4=Jambalaya
TTITLE5=Who's Gonna Chop Your Kindlin' (When I'm Gone)
TTITLE6=Once A Day
TTITLE7=A House Without Love Is Not A Home
TTITLE8=Wedding Bells
TTITLE9=Least Of All
TTITLE10=Cold Heart
TTITLE11=Don't You Ever Get Tired Of Hurting Me
TTITLE12=My Favourite Lies
TTITLE13=Just A Girl I Used To Know
TTITLE14=Ways Of The World, Wants Of A Woman
TTITLE15=Let A Little Lovin' Come In
TTITLE16=A Lifetime Of Regret
TTITLE17=I Can't Change Over Night
TTITLE18=Please Don't Let The Woman Get Me
TTITLE19=Jonesty (Inst)
EXTD=
EXTT0=
EXTT1=
EXTT2=
EXTT3=
EXTT4=
EXTT5=
EXTT6=
EXTT7=
EXTT8=
EXTT9=
EXTT10=
EXTT11=
EXTT12=
EXTT13=
EXTT14=
EXTT15=
EXTT16=
EXTT17=
EXTT18=
EXTT19=
PLAYORDER=
